<?xml version="1.0" encoding="UTF-8"?>
<svg width="184px" height="184px" viewBox="0 0 184 184" version="1.1" xmlns="http://www.w3.org/2000/svg" xmlns:xlink="http://www.w3.org/1999/xlink">
    <title>表单</title>
    <g id="页面-1" stroke="none" stroke-width="1" fill="none" fill-rule="evenodd">
        <g id="新版-历史备份" transform="translate(-1200.000000, -645.000000)" fill="#F6D536" fill-rule="nonzero">
            <g id="表单" transform="translate(1200.000000, 645.000000)">
                <path d="M42.0833332,16.6666443 C44.063619,26.3680469 52.5985704,33.3353541 62.5,33.3333332 L120.833333,33.3333332 C130.734763,33.3353541 139.269714,26.3680469 141.25,16.6666443 L158.325,16.6666443 C172.115869,16.6620421 183.305752,27.8258245 183.333333,41.6166666 L183.333333,158.383333 C183.326707,165.008562 180.687918,171.359683 175.997705,176.038956 C171.307492,180.718229 164.950226,183.342179 158.325,183.333355 L25,183.333355 C11.2123839,183.333355 0.0275752321,172.170922 0,158.383333 L0,41.6166666 C0.00662595828,34.9914382 2.645415,28.6403171 7.33562814,23.9610441 C12.0258413,19.2817711 18.3831074,16.6578208 25.0083332,16.6666443 L42.0833332,16.6666443 Z M50,66.6666665 C47.0224829,66.6662108 44.2709486,68.2544354 42.7820584,70.8329649 C41.2931683,73.4114944 41.2931683,76.5885054 42.7820584,79.1670349 C44.2709486,81.7455644 47.0224829,83.333789 50,83.3333333 L100,83.3333333 C104.601875,83.3326287 108.332058,79.6018746 108.332058,74.9999999 C108.332058,70.3981252 104.601875,66.6673711 100,66.6666665 L50,66.6666665 Z M50,100 C45.3981253,100.000705 41.6679424,103.731459 41.6679424,108.333333 C41.6679424,112.935208 45.3981253,116.665962 50,116.666667 L133.333333,116.666667 C137.935208,116.665962 141.665391,112.935208 141.665391,108.333333 C141.665391,103.731459 137.935208,100.000705 133.333333,100 L50,100 L50,100 Z M50,133.333333 C45.397627,133.333333 41.6666666,137.064294 41.6666666,141.666667 C41.6666666,146.26904 45.397627,150 50,150 L100,150 C104.602373,150 108.333333,146.26904 108.333333,141.666667 C108.333333,137.064294 104.602373,133.333333 100,133.333333 L50,133.333333 Z M62.5,-3.55271368e-15 L120.833333,-3.55271368e-15 C127.736893,-3.55271368e-15 133.333333,5.59644063 133.333333,12.5 C133.333333,19.4035594 127.736893,25 120.833333,25 L62.5,25 C55.5964406,25 50,19.4035594 50,12.5 C50,5.59644063 55.5964406,-3.55271368e-15 62.5,-3.55271368e-15 Z" id="形状"></path>
            </g>
        </g>
    </g>
</svg>