<svg width="20" height="20" viewBox="0 0 20 20" fill="none" xmlns="http://www.w3.org/2000/svg">
<g id="&#231;&#188;&#150;&#231;&#187;&#132; 22">
<g id="&#231;&#188;&#150;&#231;&#187;&#132; 9">
<circle id="&#230;&#164;&#173;&#229;&#156;&#134;&#229;&#189;&#162;&#229;&#164;&#135;&#228;&#187;&#189; 3" cx="10" cy="10" r="10" fill="#F6D536"/>
<g id="&#230;&#150;&#135;&#228;&#187;&#182; (1)">
<path id="&#229;&#189;&#162;&#231;&#138;&#182;" fill-rule="evenodd" clip-rule="evenodd" d="M11.5249 6.78786C11.478 6.61672 11.4545 6.45155 11.4545 6.29234V4.7998H6.97241C6.7925 4.7998 6.62041 4.84956 6.45614 4.94906C6.29188 5.04856 6.14521 5.17393 6.01614 5.32518C5.88708 5.47642 5.78539 5.6416 5.71108 5.8207C5.63676 5.9998 5.59961 6.17294 5.59961 6.3401V14.4595C5.59961 14.6585 5.65045 14.8496 5.75214 15.0326C5.85383 15.2157 5.98094 15.3789 6.13348 15.5222C6.28601 15.6655 6.45028 15.7809 6.62628 15.8685C6.80228 15.956 6.96459 15.9998 7.11321 15.9998H12.886C13.0581 15.9998 13.2341 15.964 13.414 15.8923C13.5939 15.8207 13.7582 15.7212 13.9068 15.5938C14.0554 15.4665 14.1747 15.3112 14.2647 15.1282C14.3546 14.9451 14.3996 14.7381 14.3996 14.5073V7.77294H12.6865C12.4753 7.77294 12.2915 7.72518 12.1351 7.62966C11.9786 7.53413 11.8496 7.41274 11.7479 7.26548C11.6462 7.11821 11.5719 6.95901 11.5249 6.78786ZM13.9655 6.09533C13.8403 5.96398 13.6721 5.79881 13.4609 5.5998C13.2654 5.42468 13.1031 5.28538 12.974 5.18189C12.8449 5.07841 12.7374 4.99881 12.6513 4.94309C12.5653 4.88737 12.489 4.84956 12.4225 4.82966C12.3561 4.80975 12.2915 4.7998 12.2289 4.7998H12.1937V6.2804C12.1937 6.32816 12.2035 6.39383 12.2231 6.47742C12.2426 6.561 12.272 6.64259 12.3111 6.72219C12.3502 6.80179 12.3991 6.87145 12.4577 6.93115C12.5164 6.99085 12.5849 7.0207 12.6631 7.0207H14.3996V6.82966C14.3996 6.78189 14.3918 6.72617 14.3761 6.66249C14.3605 6.59881 14.3194 6.5212 14.2529 6.42966C14.1865 6.33811 14.0906 6.22667 13.9655 6.09533ZM12.1937 13.7431C12.3971 13.7431 12.5692 13.6695 12.71 13.5222C12.8508 13.3749 12.9212 13.1978 12.9212 12.9908C12.9212 12.7839 12.8508 12.6088 12.71 12.4655C12.5692 12.3222 12.3971 12.2506 12.1937 12.2506H7.79374C7.59036 12.2506 7.41828 12.3222 7.27748 12.4655C7.13668 12.6088 7.06628 12.7839 7.06628 12.9908C7.06628 13.1978 7.13668 13.3749 7.27748 13.5222C7.41828 13.6695 7.59036 13.7431 7.79374 13.7431H12.1937ZM12.71 9.48637C12.8508 9.63364 12.9212 9.81075 12.9212 10.0177C12.9212 10.2247 12.8508 10.3998 12.71 10.5431C12.5692 10.6864 12.3971 10.758 12.1937 10.758H7.79374C7.59036 10.758 7.41828 10.6864 7.27748 10.5431C7.13668 10.3998 7.06628 10.2247 7.06628 10.0177C7.06628 9.81075 7.13668 9.63364 7.27748 9.48637C7.41828 9.33911 7.59036 9.26548 7.79374 9.26548H12.1937C12.3971 9.26548 12.5692 9.33911 12.71 9.48637Z" fill="#1B1C1F"/>
</g>
</g>
</g>
</svg>
